<?xml version="1.0" encoding="iso-8859-1"?>
<!-- Generator: Adobe Illustrator 19.0.0, SVG Export Plug-In . SVG Version: 6.00 Build 0)  -->
<svg version="1.1" id="Capa_1" xmlns="http://www.w3.org/2000/svg" xmlns:xlink="http://www.w3.org/1999/xlink" x="0px" y="0px"
	 viewBox="0 0 452.1 452.1" style="enable-background:new 0 0 452.1 452.1;" xml:space="preserve">
<path style="fill:#ED664C;" d="M441.7,153.95v214.6c0,21-17,38-38,38H282.9H61.4v-252.6c0-21,17-38,38-38h127.5h176.8
	C424.7,115.95,441.7,132.95,441.7,153.95z"/>
<path style="fill:#FDC75B;" d="M180.9,59.45l46.1,56.4H99.4c-21,0-38,17-38,38v252.6H48.3c-21,0-38-17-38-38V83.55c0-21,17-38,38-38
	h103.2C162.8,45.55,173.6,50.65,180.9,59.45z"/>
<path d="M403.7,106.05h-172l-43.1-53.1c-9.2-11.2-22.7-17.9-37.2-17.9H48.3c-26.5,0-48.3,22-48.3,48.5v285.1
	c0,26.4,21.8,48.4,48.3,48.4h13.2h342.3c26.5,0,48.3-22,48.3-48.5v-214.6C452,127.45,430.2,106.05,403.7,106.05z M51,153.95v243.1
	h-2.7c-15.5,0-28.3-13-28.3-28.5v-285c0-15.5,12.8-28.5,28.3-28.5h103.2c8.4,0,16.3,4,21.7,10.6l32.7,40.4H99.4
	C73,106.05,51,127.45,51,153.95z M432,368.55c0,15.4-12.8,28.5-28.3,28.5H71v-243.1c0-15.4,13-27.9,28.4-27.9h304.3
	c15.4,0,28.3,12.5,28.3,27.9L432,368.55L432,368.55z"/>
<path d="M299.4,259.65l-41.4,44.3v-109.2c0-5.5-4.5-10-10-10s-10,4.5-10,10v109.2l-41.1-44.3c-3.8-4-10-4.3-14.1-0.5
	c-4,3.8-4.2,10.1-0.5,14.1l58.6,62.9c1.9,2,4.6,3.2,7.3,3.2s5.4-1.2,7.3-3.2l58.6-62.9c3.8-4,3.5-10.4-0.6-14.1
	C309.5,255.35,303.1,255.65,299.4,259.65z"/>
<g>
</g>
<g>
</g>
<g>
</g>
<g>
</g>
<g>
</g>
<g>
</g>
<g>
</g>
<g>
</g>
<g>
</g>
<g>
</g>
<g>
</g>
<g>
</g>
<g>
</g>
<g>
</g>
<g>
</g>
</svg>
